<svg width="128" height="128" viewBox="0 0 128 128" fill="none" xmlns="http://www.w3.org/2000/svg">
<rect width="128" height="128" rx="64" fill="#ec5b56"/>
<path d="M76.7346 44.2956C76.1449 41.8599 74.9847 39.815 73.2539 38.1606C71.5231 36.5063 69.3054 35.3168 66.6008 34.5921C63.6064 33.7898 60.7689 33.7542 58.0884 34.4853C55.4078 35.2164 53.079 36.663 51.1021 38.825C49.1252 40.987 47.6967 43.7101 46.8167 46.9942C45.9109 50.3749 45.7735 53.4957 46.4045 56.3565C47.0839 59.2303 48.4257 61.6604 50.4298 63.6468C52.434 65.6332 55.0057 67.047 58.145 67.8881C62.0087 68.9234 65.4439 68.7568 68.4505 67.3883C71.4701 65.9716 73.858 63.5315 75.6142 60.068L58.2276 55.4093L60.3046 47.6577L87.6886 54.9952L85.3204 63.8335C83.6996 67.1779 81.3772 70.0497 78.3532 72.4488C75.3292 74.8479 71.8085 76.4927 67.7912 77.3833C63.835 78.2385 59.6836 78.0837 55.3369 76.9191C50.459 75.612 46.3311 73.3413 42.9531 70.1068C39.6364 66.8369 37.3672 62.9419 36.1455 58.4217C34.9721 53.9144 35.0518 49.1735 36.3847 44.199C37.7177 39.2244 40.019 35.0788 43.2889 31.7621C46.62 28.41 50.5327 26.1714 55.027 25.0463C59.5826 23.8859 64.2752 23.9527 69.1048 25.2468C74.8038 26.7738 79.3789 29.5008 82.8301 33.4279C86.2942 37.3066 88.1503 41.9709 88.3982 47.4208L76.7346 44.2956Z" fill="white"/>
<path d="M33.3464 76.0982C49.4538 66.0202 48.4471 67.028 48.4471 67.028L58.0108 69.0436C58.0108 69.0436 48.4471 74.5865 58.0108 75.5943C67.5746 76.6021 81.6686 76.6021 92.7424 79.6255C103.816 82.6489 100.796 85.6723 100.796 85.6723C100.796 85.6723 80.1585 95.7503 75.6283 98.7738C71.0981 101.797 76.1316 101.797 89.2188 101.797H89.2189C102.306 101.797 113.883 104.821 110.36 108.348L106.836 111.875L103.816 114.395L99.2861 117.418L95.2592 119.938L91.2324 121.953L87.7089 123.465L84.1854 124.977L80.1585 125.984L76.1317 126.992L71.6015 127.496L66.5679 128H62.0377L57.5075 127.496L53.4806 126.992L48.9504 125.984L43.9169 124.473L39.89 122.961L35.3598 120.945L29.8229 117.922L24.286 113.891L18.7491 108.852C18.7491 108.852 11.7021 102.805 13.2121 101.797C14.7222 100.789 24.7893 102.805 43.9169 98.2698C63.0444 93.7348 80.1585 90.2074 80.6619 85.6723C81.1652 81.1372 17.239 86.1762 33.3464 76.0982Z" fill="white"/>
<path d="M51.0863 111.064C51.0863 111.544 51.0543 111.976 50.9903 112.36H41.2703C41.3503 113.32 41.6863 114.072 42.2783 114.616C42.8703 115.16 43.5983 115.432 44.4623 115.432C45.7103 115.432 46.5983 114.896 47.1263 113.824H50.7503C50.3663 115.104 49.6303 116.16 48.5423 116.992C47.4543 117.808 46.1183 118.216 44.5343 118.216C43.2543 118.216 42.1023 117.936 41.0783 117.376C40.0703 116.8 39.2783 115.992 38.7023 114.952C38.1423 113.912 37.8623 112.712 37.8623 111.352C37.8623 109.976 38.1423 108.768 38.7023 107.728C39.2623 106.688 40.0463 105.888 41.0543 105.328C42.0623 104.768 43.2223 104.488 44.5343 104.488C45.7983 104.488 46.9263 104.76 47.9183 105.304C48.9263 105.848 49.7023 106.624 50.2463 107.632C50.8063 108.624 51.0863 109.768 51.0863 111.064ZM47.6063 110.104C47.5903 109.24 47.2783 108.552 46.6703 108.04C46.0623 107.512 45.3183 107.248 44.4383 107.248C43.6063 107.248 42.9023 107.504 42.3263 108.016C41.7663 108.512 41.4223 109.208 41.2943 110.104H47.6063ZM56.8988 106.768C57.3308 106.064 57.8908 105.512 58.5788 105.112C59.2828 104.712 60.0828 104.512 60.9788 104.512V108.04H60.0908C59.0348 108.04 58.2348 108.288 57.6908 108.784C57.1628 109.28 56.8988 110.144 56.8988 111.376V118H53.5388V104.704H56.8988V106.768ZM62.3779 111.304C62.3779 109.96 62.6419 108.768 63.1699 107.728C63.7139 106.688 64.4419 105.888 65.3539 105.328C66.2819 104.768 67.3139 104.488 68.4499 104.488C69.4419 104.488 70.3059 104.688 71.0419 105.088C71.7939 105.488 72.3939 105.992 72.8419 106.6V104.704H76.2259V118H72.8419V116.056C72.4099 116.68 71.8099 117.2 71.0419 117.616C70.2899 118.016 69.4179 118.216 68.4259 118.216C67.3059 118.216 66.2819 117.928 65.3539 117.352C64.4419 116.776 63.7139 115.968 63.1699 114.928C62.6419 113.872 62.3779 112.664 62.3779 111.304ZM72.8419 111.352C72.8419 110.536 72.6819 109.84 72.3619 109.264C72.0419 108.672 71.6099 108.224 71.0659 107.92C70.5219 107.6 69.9379 107.44 69.3139 107.44C68.6899 107.44 68.1139 107.592 67.5859 107.896C67.0579 108.2 66.6259 108.648 66.2899 109.24C65.9699 109.816 65.8099 110.504 65.8099 111.304C65.8099 112.104 65.9699 112.808 66.2899 113.416C66.6259 114.008 67.0579 114.464 67.5859 114.784C68.1299 115.104 68.7059 115.264 69.3139 115.264C69.9379 115.264 70.5219 115.112 71.0659 114.808C71.6099 114.488 72.0419 114.04 72.3619 113.464C72.6819 112.872 72.8419 112.168 72.8419 111.352ZM84.5956 118.216C83.5076 118.216 82.5316 118.024 81.6676 117.64C80.8036 117.24 80.1156 116.704 79.6036 116.032C79.1076 115.36 78.8356 114.616 78.7876 113.8H82.1716C82.2356 114.312 82.4836 114.736 82.9156 115.072C83.3636 115.408 83.9156 115.576 84.5716 115.576C85.2116 115.576 85.7076 115.448 86.0596 115.192C86.4276 114.936 86.6116 114.608 86.6116 114.208C86.6116 113.776 86.3876 113.456 85.9396 113.248C85.5076 113.024 84.8116 112.784 83.8516 112.528C82.8596 112.288 82.0436 112.04 81.4036 111.784C80.7796 111.528 80.2356 111.136 79.7716 110.608C79.3236 110.08 79.0996 109.368 79.0996 108.472C79.0996 107.736 79.3076 107.064 79.7236 106.456C80.1556 105.848 80.7636 105.368 81.5476 105.016C82.3476 104.664 83.2836 104.488 84.3556 104.488C85.9396 104.488 87.2036 104.888 88.1476 105.688C89.0916 106.472 89.6116 107.536 89.7076 108.88H86.4916C86.4436 108.352 86.2196 107.936 85.8196 107.632C85.4356 107.312 84.9156 107.152 84.2596 107.152C83.6516 107.152 83.1796 107.264 82.8436 107.488C82.5236 107.712 82.3636 108.024 82.3636 108.424C82.3636 108.872 82.5876 109.216 83.0356 109.456C83.4836 109.68 84.1796 109.912 85.1236 110.152C86.0836 110.392 86.8756 110.64 87.4996 110.896C88.1236 111.152 88.6596 111.552 89.1076 112.096C89.5716 112.624 89.8116 113.328 89.8276 114.208C89.8276 114.976 89.6116 115.664 89.1796 116.272C88.7636 116.88 88.1556 117.36 87.3556 117.712C86.5716 118.048 85.6516 118.216 84.5956 118.216Z" fill="#a30f2c"/>
</svg>
